<?xml version="1.0" standalone="no"?><!DOCTYPE svg PUBLIC "-//W3C//DTD SVG 1.1//EN" "http://www.w3.org/Graphics/SVG/1.1/DTD/svg11.dtd"><svg t="1536140969136" class="icon" style="" viewBox="0 0 1024 1024" version="1.1" xmlns="http://www.w3.org/2000/svg" p-id="11480" xmlns:xlink="http://www.w3.org/1999/xlink" width="64" height="64"><defs><style type="text/css"></style></defs><path d="M818.81 637.23a1.59 1.59 0 0 1 0.13 0.13q-1.44 2.37-2.94 4.64 1.44-2.31 2.81-4.77z" fill="#FFFFFF" p-id="11481"></path><path d="M838.73 542.61a146.12 146.12 0 0 0-21-58.65c10.73 16.16 19.33 36.04 21 58.65z" fill="#F2F2F2" p-id="11482"></path><path d="M165.44 319.93m13.01 0l106.7 0q13.01 0 13.01 13.01l0 0q0 13.01-13.01 13.01l-106.7 0q-13.01 0-13.01-13.01l0 0q0-13.01 13.01-13.01Z" fill="#C8C8C8" p-id="11483"></path><path d="M167.73 408.74m13.01 0l106.7 0q13.01 0 13.01 13.01l0 0q0 13.01-13.01 13.01l-106.7 0q-13.01 0-13.01-13.01l0 0q0-13.01 13.01-13.01Z" fill="#C8C8C8" p-id="11484"></path><path d="M163.85 497.54m13.01 0l106.7 0q13.01 0 13.01 13.01l0 0q0 13.01-13.01 13.01l-106.7 0q-13.01 0-13.01-13.01l0 0q0-13.01 13.01-13.01Z" fill="#C8C8C8" p-id="11485"></path><path d="M401.37 544.77a171 171 0 0 1-20.52-25.71 414.94 414.94 0 0 1 115-23.78q13.05-0.81 26.31-0.82 14.6 0 29 1a413 413 0 0 1 42 5q13.26 2.25 26.22 5.38a411 411 0 0 1 46.11 13.89 170.54 170.54 0 0 1-75.28 63 8.44 8.44 0 0 1 3.71 1.14q2.28 1.38 4.5 2.86h-0.06c-1.44-1-2.9-1.88-4.38-2.78-0.42-0.25-2.25-0.46-5.22-0.64q-2.64 1.11-5.34 2.12a169.71 169.71 0 0 1-175.21-34.19q-3.57-3.1-6.84-6.47z" fill="#F4F4F4" p-id="11486"></path><path d="M451.18 585.14a8.44 8.44 0 0 1 6.88-0.84c-3.94 0.25-6.4 0.54-6.88 0.84z" fill="#F4F4F4" p-id="11487"></path><path d="M938.32 910.64H105.94v-4.59a414.59 414.59 0 0 1 106-273 417.52 417.52 0 0 1 152.97-107.87 187.65 187.65 0 0 0 74.62 68.11 185.58 185.58 0 0 0 83.79 19.83A186.28 186.28 0 0 0 589.23 601a130 130 0 0 1 33.62 32.49 145.21 145.21 0 0 1 26.78 76.09H397.06a148.21 148.21 0 0 1 8.14-40.21c9.88-28 28.05-52.3 52.28-68.25a184.45 184.45 0 0 1-18-7.89c-37 28.76-59.57 75.35-59.57 124.87a8.36 8.36 0 0 0 8.36 8.36h270l0.11-0.11a8.36 8.36 0 0 0 8.35-8.36 164.1 164.1 0 0 0-11.3-59.6 160.42 160.42 0 0 0-7.17-15.72 151.36 151.36 0 0 0-41.19-49.55 187.55 187.55 0 0 0 74-67.21 416.58 416.58 0 0 1 257.22 380.14q0.03 2.3 0.03 4.59z" fill="#F4F4F4" p-id="11488"></path><path d="M451.18 585.14a8.44 8.44 0 0 1 6.88-0.84c-3.94 0.25-6.4 0.54-6.88 0.84zM460 584.18a169.64 169.64 0 0 1-51.88-32.86q4.73-1.53 9.52-2.91A374.77 374.77 0 0 1 638 551.88a170 170 0 0 1-47.9 30.9 8.44 8.44 0 0 1 3.71 1.14q2.28 1.38 4.5 2.86h-0.06c-1.44-1-2.9-1.88-4.38-2.78-0.42-0.25-2.25-0.46-5.22-0.64q-2.64 1.11-5.34 2.12a170.47 170.47 0 0 1-123.31-1.3z" fill="#E5E5E5" p-id="11489"></path><path d="M895.67 907.08h-747v-1a373.83 373.83 0 0 1 241.74-348.6 186.58 186.58 0 0 0 49.12 35.81 185.58 185.58 0 0 0 83.79 19.83A186.28 186.28 0 0 0 589.23 601a130 130 0 0 1 33.62 32.49 145.21 145.21 0 0 1 26.78 76.09H397.06a148.21 148.21 0 0 1 8.14-40.21c9.88-28 28.05-52.3 52.28-68.25a184.45 184.45 0 0 1-18-7.89c-37 28.76-59.57 75.35-59.57 124.87a8.36 8.36 0 0 0 8.36 8.36h270l0.11-0.11a8.36 8.36 0 0 0 8.35-8.36 164.1 164.1 0 0 0-11.3-59.6 160.42 160.42 0 0 0-7.17-15.72 151.36 151.36 0 0 0-41.19-49.55 187.23 187.23 0 0 0 48.32-35.06 373.64 373.64 0 0 1 240.15 348c0.13 0.33 0.13 0.68 0.13 1.02z" fill="#E5E5E5" p-id="11490"></path><path d="M523.34 596.4A169.37 169.37 0 0 1 460 584.18c26.16-1.48 102.61-2 126.65-0.89l2 0.1q-2.64 1.11-5.34 2.12a169.36 169.36 0 0 1-59.97 10.89zM622.87 633.55a145.21 145.21 0 0 1 26.78 76.09H397.06a148.21 148.21 0 0 1 8.14-40.21c9.88-28 28.05-52.3 52.28-68.25a184.45 184.45 0 0 1-18-7.89 185.58 185.58 0 0 0 83.79 19.83A186.28 186.28 0 0 0 589.23 601a130 130 0 0 1 33.64 32.55zM666.86 718.16a8.36 8.36 0 0 1-8.36 8.36h-0.16l0.11-0.11a8.36 8.36 0 0 0 8.35-8.36 164.1 164.1 0 0 0-11.3-59.6 164.06 164.06 0 0 1 11.36 59.71zM458.06 584.3c-3.94 0.25-6.4 0.54-6.88 0.84a8.44 8.44 0 0 1 6.88-0.84z" fill="#FFFFFF" p-id="11491"></path><path d="M589.23 601a186.72 186.72 0 0 1-131.77 0.12 184.45 184.45 0 0 1-18-7.89 186.64 186.64 0 0 1-99-129.18A186.51 186.51 0 0 0 589.23 601z" fill="#FFFFFF" p-id="11492"></path><path d="M593.8 583.92q2.28 1.38 4.5 2.86h-0.06c-1.44-1-2.9-1.88-4.38-2.78-0.42-0.25-2.25-0.46-5.22-0.64q-2.64 1.11-5.34 2.12a169.71 169.71 0 0 1-175.21-34.19q-3.45-3.18-6.72-6.55a171 171 0 0 1-20.52-25.71 169.79 169.79 0 1 1 209.24 63.72 8.44 8.44 0 0 1 3.71 1.17zM681.14 525.92a185.72 185.72 0 0 0 18.93-39.61 185.5 185.5 0 0 1-18.91 39.62 187.71 187.71 0 0 1-74 67.22h-0.06a187.55 187.55 0 0 0 74-67.21zM706.56 461.8a181.67 181.67 0 0 1-4.4 18q2.63-8.8 4.4-18z" fill="#FFFFFF" p-id="11493"></path><path d="M458.06 584.3c-3.94 0.25-6.4 0.54-6.88 0.84a8.44 8.44 0 0 1 6.88-0.84z" fill="#F2F2F2" p-id="11494"></path><path d="M693.23 426.5a170.09 170.09 0 0 1-103.14 156.28 8.44 8.44 0 0 1 3.71 1.14q2.28 1.38 4.5 2.86h-0.06c-1.44-1-2.9-1.88-4.38-2.78-0.42-0.25-2.25-0.46-5.22-0.64q-2.64 1.11-5.34 2.12a169.71 169.71 0 0 1-175.21-34.19q-3.45-3.18-6.72-6.55c4 1 9.54 2.28 16.24 3.64 26.85 5.5 72.87 12.34 120.63 7.8 15.55-1.48 30.94-7.84 45.41-17.6a152.34 152.34 0 0 0 14.55-11.18q4.77-4.12 9.33-8.7 6.06-6.08 11.73-12.83c35.62-42.41 57.93-102.51 48.6-144.15q-4.51-20-10.51-39.65a169.89 169.89 0 0 1 35.88 104.43z" fill="#F2F2F2" p-id="11495"></path><path d="M523.34 239.9a186.65 186.65 0 0 0-182.81 149 186.65 186.65 0 0 1 365.63 0 186.66 186.66 0 0 0-182.82-149z m66.75 342.88l-1.45 0.61c3 0.18 4.8 0.39 5.22 0.64 1.48 0.9 2.94 1.82 4.38 2.78h0.06q-2.22-1.49-4.5-2.86a8.44 8.44 0 0 0-3.71-1.17z m-138.91 2.36c0.48-0.3 2.94-0.59 6.88-0.84a8.44 8.44 0 0 0-6.88 0.84z" fill="#C8C8C8" p-id="11496"></path><path d="M706.16 388.92a186.58 186.58 0 1 0-266.61 204.36 185.58 185.58 0 0 0 83.79 19.83A186.28 186.28 0 0 0 589.23 601a130 130 0 0 1 33.62 32.49 145.21 145.21 0 0 1 26.78 76.09H397.06a148.21 148.21 0 0 1 8.14-40.21c9.88-28 28.05-52.3 52.28-68.25a184.45 184.45 0 0 1-18-7.89c-37 28.76-59.57 75.35-59.57 124.87a8.36 8.36 0 0 0 8.36 8.36h270l0.11-0.11a8.36 8.36 0 0 0 8.35-8.36 164.1 164.1 0 0 0-11.3-59.6 160.42 160.42 0 0 0-7.17-15.72 151.36 151.36 0 0 0-41.19-49.55 187.35 187.35 0 0 0 92.9-106.82l0.72-2.17c0.47-1.45 0.93-2.9 1.37-4.36q2.63-8.81 4.4-18a186.88 186.88 0 0 0-0.4-72.88z m-255 196.22a8.44 8.44 0 0 1 6.88-0.84c-3.92 0.25-6.38 0.54-6.86 0.84z m147.06 1.67c-1.44-1-2.9-1.88-4.38-2.78-0.42-0.25-2.25-0.46-5.22-0.64q-2.64 1.11-5.34 2.12a169.71 169.71 0 0 1-175.21-34.19q-3.45-3.18-6.72-6.55a171 171 0 0 1-20.52-25.71 169.79 169.79 0 1 1 209.24 63.72 8.44 8.44 0 0 1 3.71 1.14q2.28 1.38 4.5 2.86z" fill="#C8C8C8" p-id="11497"></path><path d="M622.87 633.55c-23.06 30-49.32 48.62-91.82 52.91-65.88 6.65-111.27-10.45-125.85-17a148.21 148.21 0 0 0-8.14 40.21h252.59a145.21 145.21 0 0 0-26.78-76.12z" fill="#F2F2F2" p-id="11498"></path><path d="M605.7 513.76a105.62 105.62 0 0 0-164.7-0.42A8.43 8.43 0 1 0 454.1 524a88.79 88.79 0 0 1 138.42 0.34 8.42 8.42 0 0 0 5.68 3.11 8.32 8.32 0 0 0 2.17 0 8.44 8.44 0 0 0 5.33-13.6z m1.5 79.39a151.36 151.36 0 0 1 41.19 49.55 151.5 151.5 0 0 0-41.19-49.55z m-17.11-10.37a8.53 8.53 0 0 0-6.79 2.73q2.7-1 5.34-2.12c3 0.18 4.8 0.39 5.22 0.64 1.48 0.9 2.94 1.82 4.38 2.78h0.06q-2.22-1.49-4.5-2.86a8.44 8.44 0 0 0-3.71-1.17z m-150.56 10.51a184.45 184.45 0 0 0 18 7.89 184.39 184.39 0 0 1-17.95-7.88z m11.65-8.15c0.48-0.3 2.94-0.59 6.88-0.84a8.44 8.44 0 0 0-6.88 0.84zM200.81 913.16H79.87a3.56 3.56 0 1 1 0-7.11h120.94a3.56 3.56 0 1 1 0 7.11zM353.77 913.16H232.83a3.56 3.56 0 1 1 0-7.11h120.94a3.56 3.56 0 1 1 0 7.11zM793.51 913.16H378.67a3.56 3.56 0 0 1 0-7.11h414.84a3.56 3.56 0 1 1 0 7.11zM964.43 913.16H818.59a3.56 3.56 0 0 1 0-7.11h145.84a3.56 3.56 0 1 1 0 7.11z" fill="#C8C8C8" p-id="11499"></path><path d="M793.76 828.71H247.37A35.41 35.41 0 0 1 212 793.34V549.06a15 15 0 0 1 30 0v244.28a5.44 5.44 0 0 0 5.37 5.37h546.39a5.43 5.43 0 0 0 5.36-5.37v-640a5.43 5.43 0 0 0-5.36-5.36H247.37a5.43 5.43 0 0 0-5.37 5.36v140.58a15 15 0 1 1-30 0V153.33A35.41 35.41 0 0 1 247.37 118h546.39a35.4 35.4 0 0 1 35.36 35.36v640a35.41 35.41 0 0 1-35.36 35.35z" fill="#C8C8C8" p-id="11500"></path></svg>